HIERARCHY
ROOT Hips
{
    OFFSET 0.000000 83.639999 0.000000
    CHANNELS 6 Xposition Yposition Zposition Yrotation Xrotation Zrotation
    JOINT RightUpLeg
    {
        OFFSET -10.500000 -0.000000 0.000000
        CHANNELS 3 Yrotation Xrotation Zrotation
        JOINT RightLeg
        {
            OFFSET 0.000000 -39.400002 0.000000
            CHANNELS 3 Yrotation Xrotation Zrotation
            JOINT RightFoot
            {
                OFFSET 0.000000 -37.320000 0.000000
                CHANNELS 3 Yrotation Xrotation Zrotation
                End Site
                {
                    OFFSET 0.000000 -6.920000 12.600000
                }
            }
        }
    }
    JOINT LeftUpLeg
    {
        OFFSET 10.500000 -0.000000 0.000000
        CHANNELS 3 Yrotation Xrotation Zrotation
        JOINT LeftLeg
        {
            OFFSET 0.000000 -39.400002 0.000000
            CHANNELS 3 Yrotation Xrotation Zrotation
            JOINT LeftFoot
            {
                OFFSET 0.000000 -37.320000 0.000000
                CHANNELS 3 Yrotation Xrotation Zrotation
                End Site
                {
                    OFFSET 0.000000 -6.920000 12.600000
                }
            }
        }
    }
    JOINT Spine
    {
        OFFSET 0.000000 7.549000 0.000000
        CHANNELS 3 Yrotation Xrotation Zrotation
        JOINT Spine1
        {
            OFFSET 0.000000 16.715000 0.000000
            CHANNELS 3 Yrotation Xrotation Zrotation
            JOINT Spine2
            {
                OFFSET 0.000000 11.862000 0.000000
                CHANNELS 3 Yrotation Xrotation Zrotation
                JOINT Neck
                {
                    OFFSET 0.000000 17.794001 0.000000
                    CHANNELS 3 Yrotation Xrotation Zrotation
                    JOINT Neck1
                    {
                        OFFSET 0.000000 4.145000 0.000000
                        CHANNELS 3 Yrotation Xrotation Zrotation
                        JOINT Head
                        {
                            OFFSET 0.000000 4.145000 0.000000
                            CHANNELS 3 Yrotation Xrotation Zrotation
                            End Site
                            {
                                OFFSET 0.000000 16.070000 0.000000
                            }
                        }
                    }
                }
                JOINT RightShoulder
                {
                    OFFSET -2.696000 12.402000 0.000000
                    CHANNELS 3 Yrotation Xrotation Zrotation
                    JOINT RightArm
                    {
                        OFFSET -12.804000 0.000000 0.000000
                        CHANNELS 3 Yrotation Xrotation Zrotation
                        JOINT RightForeArm
                        {
                            OFFSET -21.000000 0.000000 0.000000
                            CHANNELS 3 Yrotation Xrotation Zrotation
                            JOINT RightHand
                            {
                                OFFSET -23.000000 0.000000 0.000000
                                CHANNELS 3 Yrotation Xrotation Zrotation
                                JOINT RightHandThumb1
                                {
                                    OFFSET -1.737000 -0.434000 2.258000
                                    CHANNELS 3 Yrotation Xrotation Zrotation
                                    JOINT RightHandThumb2
                                    {
                                        OFFSET -3.472000 0.000000 0.000000
                                        CHANNELS 3 Yrotation Xrotation Zrotation
                                        JOINT RightHandThumb3
                                        {
                                            OFFSET -2.412000 0.000000 0.000000
                                            CHANNELS 3 Yrotation Xrotation Zrotation
                                            End Site
                                            {
                                                OFFSET -2.275000 0.000000 0.000000
                                            }
                                        }
                                    }
                                }
                                JOINT RightInHandIndex
                                {
                                    OFFSET -3.039000 0.479000 1.865000
                                    CHANNELS 3 Yrotation Xrotation Zrotation
                                    JOINT RightHandIndex1
                                    {
                                        OFFSET -4.919000 -0.086000 0.942000
                                        CHANNELS 3 Yrotation Xrotation Zrotation
                                        JOINT RightHandIndex2
                                        {
                                            OFFSET -3.413000 0.000000 0.000000
                                            CHANNELS 3 Yrotation Xrotation Zrotation
                                            JOINT RightHandIndex3
                                            {
                                                OFFSET -1.935000 0.000000 0.000000
                                                CHANNELS 3 Yrotation Xrotation Zrotation
                                                End Site
                                                {
                                                    OFFSET -1.702000 0.000000 0.000000
                                                }
                                            }
                                        }
                                    }
                                }
                                JOINT RightInHandMiddle
                                {
                                    OFFSET -3.189000 0.488000 0.714000
                                    CHANNELS 3 Yrotation Xrotation Zrotation
                                    JOINT RightHandMiddle1
                                    {
                                        OFFSET -4.879000 -0.079000 0.296000
                                        CHANNELS 3 Yrotation Xrotation Zrotation
                                        JOINT RightHandMiddle2
                                        {
                                            OFFSET -3.724000 0.000000 0.000000
                                            CHANNELS 3 Yrotation Xrotation Zrotation
                                            JOINT RightHandMiddle3
                                            {
                                                OFFSET -2.334000 0.000000 0.000000
                                                CHANNELS 3 Yrotation Xrotation Zrotation
                                                End Site
                                                {
                                                    OFFSET -1.862000 0.000000 0.000000
                                                }
                                            }
                                        }
                                    }
                                }
                                JOINT RightInHandRing
                                {
                                    OFFSET -3.173000 0.507000 -0.122000
                                    CHANNELS 3 Yrotation Xrotation Zrotation
                                    JOINT RightHandRing1
                                    {
                                        OFFSET -4.370000 -0.021000 -0.452000
                                        CHANNELS 3 Yrotation Xrotation Zrotation
                                        JOINT RightHandRing2
                                        {
                                            OFFSET -3.245000 0.000000 0.000000
                                            CHANNELS 3 Yrotation Xrotation Zrotation
                                            JOINT RightHandRing3
                                            {
                                                OFFSET -2.252000 0.000000 0.000000
                                                CHANNELS 3 Yrotation Xrotation Zrotation
                                                End Site
                                                {
                                                    OFFSET -1.751000 0.000000 0.000000
                                                }
                                            }
                                        }
                                    }
                                }
                                JOINT RightInHandPinky
                                {
                                    OFFSET -2.980000 0.443000 -1.133000
                                    CHANNELS 3 Yrotation Xrotation Zrotation
                                    JOINT RightHandPinky1
                                    {
                                        OFFSET -3.904000 -0.021000 -1.028000
                                        CHANNELS 3 Yrotation Xrotation Zrotation
                                        JOINT RightHandPinky2
                                        {
                                            OFFSET -2.599000 0.000000 0.000000
                                            CHANNELS 3 Yrotation Xrotation Zrotation
                                            JOINT RightHandPinky3
                                            {
                                                OFFSET -1.642000 0.000000 0.000000
                                                CHANNELS 3 Yrotation Xrotation Zrotation
                                                End Site
                                                {
                                                    OFFSET -1.551000 0.000000 0.000000
                                                }
                                            }
                                        }
                                    }
                                }
                            }
                        }
                    }
                }
                JOINT LeftShoulder
                {
                    OFFSET 2.696000 12.402000 0.000000
                    CHANNELS 3 Yrotation Xrotation Zrotation
                    JOINT LeftArm
                    {
                        OFFSET 12.804000 0.000000 0.000000
                        CHANNELS 3 Yrotation Xrotation Zrotation
                        JOINT LeftForeArm
                        {
                            OFFSET 21.000000 0.000000 0.000000
                            CHANNELS 3 Yrotation Xrotation Zrotation
                            JOINT LeftHand
                            {
                                OFFSET 23.000000 0.000000 0.000000
                                CHANNELS 3 Yrotation Xrotation Zrotation
                                JOINT LeftHandThumb1
                                {
                                    OFFSET 1.737000 -0.434000 2.258000
                                    CHANNELS 3 Yrotation Xrotation Zrotation
                                    JOINT LeftHandThumb2
                                    {
                                        OFFSET 3.472000 0.000000 0.000000
                                        CHANNELS 3 Yrotation Xrotation Zrotation
                                        JOINT LeftHandThumb3
                                        {
                                            OFFSET 2.412000 0.000000 0.000000
                                            CHANNELS 3 Yrotation Xrotation Zrotation
                                            End Site
                                            {
                                                OFFSET 2.275000 0.000000 0.000000
                                            }
                                        }
                                    }
                                }
                                JOINT LeftInHandIndex
                                {
                                    OFFSET 3.039000 0.479000 1.865000
                                    CHANNELS 3 Yrotation Xrotation Zrotation
                                    JOINT LeftHandIndex1
                                    {
                                        OFFSET 4.919000 -0.086000 0.942000
                                        CHANNELS 3 Yrotation Xrotation Zrotation
                                        JOINT LeftHandIndex2
                                        {
                                            OFFSET 3.413000 0.000000 0.000000
                                            CHANNELS 3 Yrotation Xrotation Zrotation
                                            JOINT LeftHandIndex3
                                            {
                                                OFFSET 1.935000 0.000000 0.000000
                                                CHANNELS 3 Yrotation Xrotation Zrotation
                                                End Site
                                                {
                                                    OFFSET 1.702000 0.000000 0.000000
                                                }
                                            }
                                        }
                                    }
                                }
                                JOINT LeftInHandMiddle
                                {
                                    OFFSET 3.189000 0.488000 0.714000
                                    CHANNELS 3 Yrotation Xrotation Zrotation
                                    JOINT LeftHandMiddle1
                                    {
                                        OFFSET 4.879000 -0.079000 0.296000
                                        CHANNELS 3 Yrotation Xrotation Zrotation
                                        JOINT LeftHandMiddle2
                                        {
                                            OFFSET 3.724000 0.000000 0.000000
                                            CHANNELS 3 Yrotation Xrotation Zrotation
                                            JOINT LeftHandMiddle3
                                            {
                                                OFFSET 2.334000 0.000000 0.000000
                                                CHANNELS 3 Yrotation Xrotation Zrotation
                                                End Site
                                                {
                                                    OFFSET 1.862000 0.000000 0.000000
                                                }
                                            }
                                        }
                                    }
                                }
                                JOINT LeftInHandRing
                                {
                                    OFFSET 3.173000 0.507000 -0.122000
                                    CHANNELS 3 Yrotation Xrotation Zrotation
                                    JOINT LeftHandRing1
                                    {
                                        OFFSET 4.370000 -0.021000 -0.452000
                                        CHANNELS 3 Yrotation Xrotation Zrotation
                                        JOINT LeftHandRing2
                                        {
                                            OFFSET 3.245000 0.000000 0.000000
                                            CHANNELS 3 Yrotation Xrotation Zrotation
                                            JOINT LeftHandRing3
                                            {
                                                OFFSET 2.252000 0.000000 0.000000
                                                CHANNELS 3 Yrotation Xrotation Zrotation
                                                End Site
                                                {
                                                    OFFSET 1.751000 0.000000 0.000000
                                                }
                                            }
                                        }
                                    }
                                }
                                JOINT LeftInHandPinky
                                {
                                    OFFSET 2.980000 0.443000 -1.133000
                                    CHANNELS 3 Yrotation Xrotation Zrotation
                                    JOINT LeftHandPinky1
                                    {
                                        OFFSET 3.904000 -0.021000 -1.028000
                                        CHANNELS 3 Yrotation Xrotation Zrotation
                                        JOINT LeftHandPinky2
                                        {
                                            OFFSET 2.599000 0.000000 0.000000
                                            CHANNELS 3 Yrotation Xrotation Zrotation
                                            JOINT LeftHandPinky3
                                            {
                                                OFFSET 1.642000 0.000000 0.000000
                                                CHANNELS 3 Yrotation Xrotation Zrotation
                                                End Site
                                                {
                                                    OFFSET 1.551000 0.000000 0.000000
                                                }
                                            }
                                        }
                                    }
                                }
                            }
                        }
                    }
                }
            }
        }
    }
}
MOTION
Frames: 4
Frame Time: 0.016667
103.384689 78.191757 -48.561245 26.884365 37.885845 18.245056 170.882874 -141.337357 -175.803223 2.715027 46.267807 21.446569 150.399017 -158.921448 -171.533463 6.026998 -46.882912 -8.649026 22.702534 38.024204 15.209774 142.547913 -148.392410 -165.263565 0.502788 -4.301074 0.646187 0.506498 -4.173090 1.106827 2.516727 -3.028701 1.273714 0.000602 -11.985411 -1.515115 0.004790 -13.965901 -1.572821 168.633469 -169.718658 -179.051804 166.244797 -172.790497 -171.515564 4.582086 -20.493937 85.884277 20.777914 33.290207 27.608002 16.327501 8.067765 -36.636238 43.477409 -0.000024 12.839273 176.995316 179.999985 -160.741119 0.755723 0.000000 -0.000003 180.000000 -180.000000 180.000000 15.000049 -0.000005 22.983458 180.000000 -179.999985 -161.195358 0.000001 0.000007 13.163306 180.000000 -180.000000 -180.000000 0.000010 0.000003 28.287096 0.000001 -0.000009 34.104549 180.000000 -180.000000 -157.286423 180.000000 -180.000000 180.000000 170.000015 -179.999985 -152.110260 179.999985 180.000000 -148.689804 0.000008 0.000006 20.852537 180.000000 -180.000000 180.000000 160.000061 -179.999985 -155.133041 180.000000 179.999985 -142.699570 180.000000 -179.999985 -155.157928 13.294168 2.202123 -1.135363 2.486413 -11.040815 -72.361404 110.399559 170.765350 137.554688 179.510620 -162.770035 -173.674759 136.522598 -179.999985 167.160721 3.004681 0.000008 -19.258894 0.755723 0.000000 -0.000003 0.000005 -0.000002 0.000002 164.999954 -179.999985 157.016541 0.000002 -0.000003 -18.804642 180.000000 179.999985 166.836685 0.000005 -0.000002 0.000002 179.999985 179.999985 151.712906 180.000000 -179.999985 145.895447 0.000000 -0.000002 -22.713579 0.000005 -0.000002 0.000002 9.999979 -0.000006 -27.889727 0.000007 0.000000 -31.310192 179.999985 179.999985 159.147461 0.000005 -0.000002 0.000002 19.999945 -0.000026 -24.866964 0.000004 0.000009 -37.300442 0.000001 -0.000004 -24.842075
102.897049 79.486938 -47.290550 37.391956 33.687477 20.287413 166.688110 -143.574768 -176.116318 179.796555 136.226318 -159.620148 150.243561 -159.431839 -173.455200 3.597551 -42.929440 -7.138834 24.021894 33.858307 12.907639 143.107193 -153.659851 -170.158905 0.534895 -4.280075 0.799552 0.539061 -4.162508 1.358895 2.731966 -3.052689 1.588740 0.004526 -11.716275 -2.404468 0.018854 -13.643564 -2.501341 168.300751 -169.917450 -179.658279 164.665970 -171.745041 -172.705002 6.393289 -20.342932 84.995033 31.463949 26.702747 39.371098 16.684879 13.925903 -39.670315 43.477409 -0.000024 12.839273 176.995316 179.999985 -160.741119 0.755723 0.000000 -0.000003 180.000000 -180.000000 180.000000 15.000049 -0.000005 22.983458 180.000000 -179.999985 -161.195358 0.000001 0.000007 13.163306 180.000000 -180.000000 -180.000000 0.000010 0.000003 28.287096 0.000001 -0.000009 34.104549 180.000000 -180.000000 -157.286423 180.000000 -180.000000 180.000000 170.000015 -179.999985 -152.110260 179.999985 180.000000 -148.689804 0.000008 0.000006 20.852537 180.000000 -180.000000 180.000000 160.000061 -179.999985 -155.133041 180.000000 179.999985 -142.699570 180.000000 -179.999985 -155.157928 11.741499 2.078600 0.921789 5.433134 -11.713605 -69.245682 105.078186 176.762360 135.431396 2.433807 -10.420606 9.611987 136.522598 -179.999985 167.160721 3.004681 0.000008 -19.258894 0.755723 0.000000 -0.000003 0.000005 -0.000002 0.000002 164.999954 -179.999985 157.016541 0.000002 -0.000003 -18.804642 180.000000 179.999985 166.836685 0.000005 -0.000002 0.000002 179.999985 179.999985 151.712906 180.000000 -179.999985 145.895447 0.000000 -0.000002 -22.713579 0.000005 -0.000002 0.000002 9.999979 -0.000006 -27.889727 0.000007 0.000000 -31.310192 179.999985 179.999985 159.147461 0.000005 -0.000002 0.000002 19.999945 -0.000026 -24.866964 0.000004 0.000009 -37.300442 0.000001 -0.000004 -24.842075
102.904381 80.798958 -46.208618 49.707748 27.812290 21.813513 159.176239 -147.231308 -175.549530 178.520996 139.372955 -160.973434 149.830902 -161.438477 -174.433060 1.049064 -38.161301 -5.584395 24.133451 29.888357 10.298141 143.681885 -159.700211 -175.027145 179.946915 -175.860138 -178.922882 179.947327 -175.953201 -178.193939 179.963531 -177.107315 -177.634308 0.005208 -11.362934 -2.842855 0.021475 -13.238285 -2.956124 171.233826 -170.097687 179.482742 166.427216 -170.174667 -174.370987 4.642563 -19.364590 83.293411 42.444981 18.148155 51.445267 16.003021 19.694456 -40.831738 43.477409 -0.000024 12.839273 176.995316 179.999985 -160.741119 0.755723 0.000000 -0.000003 180.000000 -180.000000 180.000000 15.000049 -0.000005 22.983458 180.000000 -179.999985 -161.195358 0.000001 0.000007 13.163306 180.000000 -180.000000 -180.000000 0.000010 0.000003 28.287096 0.000001 -0.000009 34.104549 180.000000 -180.000000 -157.286423 180.000000 -180.000000 180.000000 170.000015 -179.999985 -152.110260 179.999985 180.000000 -148.689804 0.000008 0.000006 20.852537 180.000000 -180.000000 180.000000 160.000061 -179.999985 -155.133041 180.000000 179.999985 -142.699570 180.000000 -179.999985 -155.157928 13.213321 1.723692 2.760724 5.710375 -13.725432 -67.253326 100.643600 -177.706253 134.598846 6.395232 -3.543479 11.046651 136.522598 -179.999985 167.160721 3.004681 0.000008 -19.258894 0.755723 0.000000 -0.000003 0.000005 -0.000002 0.000002 164.999954 -179.999985 157.016541 0.000002 -0.000003 -18.804642 180.000000 179.999985 166.836685 0.000005 -0.000002 0.000002 179.999985 179.999985 151.712906 180.000000 -179.999985 145.895447 0.000000 -0.000002 -22.713579 0.000005 -0.000002 0.000002 9.999979 -0.000006 -27.889727 0.000007 0.000000 -31.310192 179.999985 179.999985 159.147461 0.000005 -0.000002 0.000002 19.999945 -0.000026 -24.866964 0.000004 0.000009 -37.300442 0.000001 -0.000004 -24.842075
103.504051 82.077255 -45.468082 60.566093 21.788149 22.676537 154.484344 -151.402161 -177.305420 176.660675 142.671570 -162.421768 150.574371 -164.947998 -175.499283 0.086440 -33.506290 -5.413950 28.936796 26.289267 9.960628 143.841644 -164.364761 -179.690872 179.759796 -175.921890 -178.878983 179.760361 -176.004929 -178.135925 179.115662 -177.186569 -177.506180 0.011560 -10.780672 -3.728569 0.040486 -12.549433 -3.884520 171.273575 -170.692459 178.810486 165.615936 -168.970001 -175.695435 2.780621 -17.876095 81.022171 49.924065 8.474244 59.734390 15.385070 24.107426 -40.407639 43.477409 -0.000024 12.839273 176.995316 179.999985 -160.741119 0.755723 0.000000 -0.000003 180.000000 -180.000000 180.000000 15.000049 -0.000005 22.983458 180.000000 -179.999985 -161.195358 0.000001 0.000007 13.163306 180.000000 -180.000000 -180.000000 0.000010 0.000003 28.287096 0.000001 -0.000009 34.104549 180.000000 -180.000000 -157.286423 180.000000 -180.000000 180.000000 170.000015 -179.999985 -152.110260 179.999985 180.000000 -148.689804 0.000008 0.000006 20.852537 180.000000 -180.000000 180.000000 160.000061 -179.999985 -155.133041 180.000000 179.999985 -142.699570 180.000000 -179.999985 -155.157928 11.945335 1.469610 4.719779 6.427792 -16.978037 -66.291153 96.818390 -172.336502 134.667847 10.010394 4.232050 12.305503 136.522598 -179.999985 167.160721 3.004681 0.000008 -19.258894 0.755723 0.000000 -0.000003 0.000005 -0.000002 0.000002 164.999954 -179.999985 157.016541 0.000002 -0.000003 -18.804642 180.000000 179.999985 166.836685 0.000005 -0.000002 0.000002 179.999985 179.999985 151.712906 180.000000 -179.999985 145.895447 0.000000 -0.000002 -22.713579 0.000005 -0.000002 0.000002 9.999979 -0.000006 -27.889727 0.000007 0.000000 -31.310192 179.999985 179.999985 159.147461 0.000005 -0.000002 0.000002 19.999945 -0.000026 -24.866964 0.000004 0.000009 -37.300442 0.000001 -0.000004 -24.842075
